<mxfile host="app.diagrams.net" modified="2023-04-16T08:27:24.495Z" agent="5.0 (Macintosh; Intel Mac OS X 10_15_7) AppleWebKit/537.36 (KHTML, like Gecko) Chrome/111.0.0.0 Safari/537.36" etag="OW13q4xby3ckeJ885B-k" version="21.0.10" type="github">
  <diagram id="6a731a19-8d31-9384-78a2-239565b7b9f0" name="Page-1">
    <mxGraphModel dx="1004" dy="656" grid="1" gridSize="10" guides="1" tooltips="1" connect="1" arrows="1" fold="1" page="1" pageScale="1" pageWidth="1169" pageHeight="827" background="none" math="0" shadow="0">
      <root>
        <mxCell id="0" />
        <mxCell id="1" parent="0" />
        <mxCell id="rPfxtBTCKxxoWd4nLt_Z-56" value="" style="endArrow=none;html=1;rounded=0;" edge="1" parent="1">
          <mxGeometry width="50" height="50" relative="1" as="geometry">
            <mxPoint x="500" y="390" as="sourcePoint" />
            <mxPoint x="500" y="220" as="targetPoint" />
          </mxGeometry>
        </mxCell>
        <mxCell id="rPfxtBTCKxxoWd4nLt_Z-55" value="等待连接" style="rounded=0;whiteSpace=wrap;html=1;fillColor=#fff2cc;strokeColor=#d6b656;" vertex="1" parent="1">
          <mxGeometry x="440" y="250" width="120" height="40" as="geometry" />
        </mxCell>
        <mxCell id="rPfxtBTCKxxoWd4nLt_Z-60" value="" style="endArrow=none;html=1;rounded=0;" edge="1" parent="1">
          <mxGeometry width="50" height="50" relative="1" as="geometry">
            <mxPoint x="270" y="670" as="sourcePoint" />
            <mxPoint x="270" y="220" as="targetPoint" />
          </mxGeometry>
        </mxCell>
        <mxCell id="rPfxtBTCKxxoWd4nLt_Z-61" value="建立连接" style="rounded=0;whiteSpace=wrap;html=1;fillColor=#fff2cc;strokeColor=#d6b656;" vertex="1" parent="1">
          <mxGeometry x="210" y="290" width="120" height="40" as="geometry" />
        </mxCell>
        <mxCell id="rPfxtBTCKxxoWd4nLt_Z-62" value="选择商品" style="rounded=0;whiteSpace=wrap;html=1;fillColor=#e1d5e7;strokeColor=#B188C4;" vertex="1" parent="1">
          <mxGeometry x="210" y="420" width="120" height="40" as="geometry" />
        </mxCell>
        <mxCell id="rPfxtBTCKxxoWd4nLt_Z-63" value="用户付款" style="rounded=0;whiteSpace=wrap;html=1;fillColor=#e1d5e7;strokeColor=#B188C4;" vertex="1" parent="1">
          <mxGeometry x="210" y="530" width="120" height="40" as="geometry" />
        </mxCell>
        <mxCell id="rPfxtBTCKxxoWd4nLt_Z-66" value="客户端" style="text;html=1;strokeColor=none;fillColor=none;align=center;verticalAlign=middle;whiteSpace=wrap;rounded=0;" vertex="1" parent="1">
          <mxGeometry x="240" y="190" width="60" height="30" as="geometry" />
        </mxCell>
        <mxCell id="rPfxtBTCKxxoWd4nLt_Z-67" value="服务端" style="text;html=1;strokeColor=none;fillColor=none;align=center;verticalAlign=middle;whiteSpace=wrap;rounded=0;" vertex="1" parent="1">
          <mxGeometry x="470" y="190" width="60" height="30" as="geometry" />
        </mxCell>
        <mxCell id="rPfxtBTCKxxoWd4nLt_Z-69" value="" style="endArrow=none;dashed=1;html=1;dashPattern=1 3;strokeWidth=2;rounded=0;entryX=1;entryY=0.5;entryDx=0;entryDy=0;startArrow=classicThin;startFill=1;" edge="1" parent="1" target="rPfxtBTCKxxoWd4nLt_Z-61">
          <mxGeometry width="50" height="50" relative="1" as="geometry">
            <mxPoint x="500" y="310" as="sourcePoint" />
            <mxPoint x="380" y="350" as="targetPoint" />
          </mxGeometry>
        </mxCell>
        <mxCell id="rPfxtBTCKxxoWd4nLt_Z-70" value="连接建立成功" style="rounded=0;whiteSpace=wrap;html=1;fillColor=#fff2cc;strokeColor=#d6b656;" vertex="1" parent="1">
          <mxGeometry x="440" y="330" width="120" height="40" as="geometry" />
        </mxCell>
        <mxCell id="rPfxtBTCKxxoWd4nLt_Z-72" value="" style="endArrow=none;dashed=1;html=1;dashPattern=1 3;strokeWidth=2;rounded=0;entryX=0;entryY=0.5;entryDx=0;entryDy=0;startArrow=classicThin;startFill=1;" edge="1" parent="1" target="rPfxtBTCKxxoWd4nLt_Z-70">
          <mxGeometry width="50" height="50" relative="1" as="geometry">
            <mxPoint x="270" y="350" as="sourcePoint" />
            <mxPoint x="340" y="320" as="targetPoint" />
          </mxGeometry>
        </mxCell>
        <mxCell id="rPfxtBTCKxxoWd4nLt_Z-73" value="" style="endArrow=none;dashed=1;html=1;dashPattern=1 3;strokeWidth=2;rounded=0;entryX=1;entryY=0.5;entryDx=0;entryDy=0;startArrow=classicThin;startFill=1;" edge="1" parent="1" target="rPfxtBTCKxxoWd4nLt_Z-62">
          <mxGeometry width="50" height="50" relative="1" as="geometry">
            <mxPoint x="500" y="440" as="sourcePoint" />
            <mxPoint x="340" y="312" as="targetPoint" />
          </mxGeometry>
        </mxCell>
        <mxCell id="rPfxtBTCKxxoWd4nLt_Z-74" value="" style="endArrow=none;html=1;rounded=0;" edge="1" parent="1" source="rPfxtBTCKxxoWd4nLt_Z-58">
          <mxGeometry width="50" height="50" relative="1" as="geometry">
            <mxPoint x="499" y="780" as="sourcePoint" />
            <mxPoint x="500" y="418" as="targetPoint" />
          </mxGeometry>
        </mxCell>
        <mxCell id="rPfxtBTCKxxoWd4nLt_Z-59" value="生成付款码" style="rounded=0;whiteSpace=wrap;html=1;fillColor=#e1d5e7;strokeColor=#B188C4;" vertex="1" parent="1">
          <mxGeometry x="440" y="472" width="120" height="38" as="geometry" />
        </mxCell>
        <mxCell id="rPfxtBTCKxxoWd4nLt_Z-75" value="" style="endArrow=none;dashed=1;html=1;dashPattern=1 3;strokeWidth=2;rounded=0;startArrow=classicThin;startFill=1;entryX=0;entryY=0.5;entryDx=0;entryDy=0;" edge="1" parent="1" target="rPfxtBTCKxxoWd4nLt_Z-59">
          <mxGeometry width="50" height="50" relative="1" as="geometry">
            <mxPoint x="270" y="490" as="sourcePoint" />
            <mxPoint x="500" y="530" as="targetPoint" />
          </mxGeometry>
        </mxCell>
        <mxCell id="rPfxtBTCKxxoWd4nLt_Z-76" value="" style="endArrow=none;dashed=1;html=1;dashPattern=1 3;strokeWidth=2;rounded=0;entryX=1;entryY=0.5;entryDx=0;entryDy=0;startArrow=classicThin;startFill=1;" edge="1" parent="1" target="rPfxtBTCKxxoWd4nLt_Z-63">
          <mxGeometry width="50" height="50" relative="1" as="geometry">
            <mxPoint x="500" y="550" as="sourcePoint" />
            <mxPoint x="340" y="450" as="targetPoint" />
          </mxGeometry>
        </mxCell>
        <mxCell id="rPfxtBTCKxxoWd4nLt_Z-77" value="" style="endArrow=none;html=1;rounded=0;" edge="1" parent="1" target="rPfxtBTCKxxoWd4nLt_Z-58">
          <mxGeometry width="50" height="50" relative="1" as="geometry">
            <mxPoint x="499" y="670" as="sourcePoint" />
            <mxPoint x="500" y="418" as="targetPoint" />
          </mxGeometry>
        </mxCell>
        <mxCell id="rPfxtBTCKxxoWd4nLt_Z-58" value="购买成功" style="rounded=0;whiteSpace=wrap;html=1;fillColor=#e1d5e7;strokeColor=#B188C4;" vertex="1" parent="1">
          <mxGeometry x="440" y="590" width="120" height="40" as="geometry" />
        </mxCell>
        <mxCell id="rPfxtBTCKxxoWd4nLt_Z-78" value="" style="endArrow=none;dashed=1;html=1;dashPattern=1 3;strokeWidth=2;rounded=0;startArrow=classicThin;startFill=1;entryX=0;entryY=0.5;entryDx=0;entryDy=0;" edge="1" parent="1" target="rPfxtBTCKxxoWd4nLt_Z-58">
          <mxGeometry width="50" height="50" relative="1" as="geometry">
            <mxPoint x="270" y="610" as="sourcePoint" />
            <mxPoint x="450" y="501" as="targetPoint" />
          </mxGeometry>
        </mxCell>
        <mxCell id="rPfxtBTCKxxoWd4nLt_Z-79" value="客户端线程" style="text;html=1;strokeColor=none;fillColor=none;align=center;verticalAlign=middle;whiteSpace=wrap;rounded=0;" vertex="1" parent="1">
          <mxGeometry x="160" y="360" width="40" height="30" as="geometry" />
        </mxCell>
        <mxCell id="rPfxtBTCKxxoWd4nLt_Z-80" value="服务端主线程" style="text;html=1;strokeColor=none;fillColor=none;align=center;verticalAlign=middle;whiteSpace=wrap;rounded=0;" vertex="1" parent="1">
          <mxGeometry x="570" y="290" width="40" height="30" as="geometry" />
        </mxCell>
        <mxCell id="rPfxtBTCKxxoWd4nLt_Z-82" value="服务端工作线程" style="text;html=1;strokeColor=none;fillColor=none;align=center;verticalAlign=middle;whiteSpace=wrap;rounded=0;" vertex="1" parent="1">
          <mxGeometry x="570" y="530" width="40" height="30" as="geometry" />
        </mxCell>
      </root>
    </mxGraphModel>
  </diagram>
</mxfile>
